<svg width="51" height="51" viewBox="0 0 51 51" fill="none" xmlns="http://www.w3.org/2000/svg">
<g clip-path="url(#clip0_201_42)">
<path d="M14.8755 42.5C18.3963 42.5 21.2505 39.6458 21.2505 36.125C21.2505 32.6042 18.3963 29.75 14.8755 29.75C11.3547 29.75 8.50049 32.6042 8.50049 36.125C8.50049 39.6458 11.3547 42.5 14.8755 42.5Z" stroke="#E1FF08" stroke-width="2.28285" stroke-linecap="round" stroke-linejoin="round"/>
<path d="M36.1245 42.5C39.6453 42.5 42.4995 39.6458 42.4995 36.125C42.4995 32.6042 39.6453 29.75 36.1245 29.75C32.6037 29.75 29.7495 32.6042 29.7495 36.125C29.7495 39.6458 32.6037 42.5 36.1245 42.5Z" stroke="#E1FF08" stroke-width="2.28285" stroke-linecap="round" stroke-linejoin="round"/>
<path d="M19.4434 31.5563L38.2496 8.5" stroke="#E1FF08" stroke-width="2.28285" stroke-linecap="round" stroke-linejoin="round"/>
<path d="M12.75 8.5L31.5562 31.5563" stroke="#E1FF08" stroke-width="2.28285" stroke-linecap="round" stroke-linejoin="round"/>
</g>
<defs>
<clipPath id="clip0_201_42">
<rect width="51" height="51" fill="white"/>
</clipPath>
</defs>
</svg>
