<svg width="64" height="64" viewBox="0 0 64 64" fill="none" xmlns="http://www.w3.org/2000/svg">
<rect width="64" height="64" rx="17.1429" fill="#263CFF"/>
<path d="M41.7713 10.449C41.6172 10.449 26.8582 10.449 26.8582 10.449C24.2285 10.449 21.8872 12.8612 21.8872 15.42L20.4505 15.4536C17.8221 15.4536 15.6733 17.8322 15.6733 20.391V45.2463C15.6733 47.8051 18.0147 50.2173 20.6444 50.2173H39.2858C41.9154 50.2173 44.2568 47.8051 44.2568 45.2463H45.4996C48.1293 45.2463 50.4706 42.8341 50.4706 40.2752V20.4209L41.7713 10.449ZM39.2858 47.7318H20.6444C19.3395 47.7318 18.1589 46.5127 18.1589 45.2463V20.391C18.1589 19.1247 19.2215 17.9465 20.5264 17.9465L21.8872 17.9055V40.2752C21.8872 42.8341 24.2285 45.2463 26.8582 45.2463H41.7713C41.7713 46.5127 40.5906 47.7318 39.2858 47.7318ZM47.9851 40.2752C47.9851 41.5415 46.8045 42.7607 45.4996 42.7607H26.8582C25.5533 42.7607 24.3727 41.5416 24.3727 40.2752V15.42C24.3727 14.1537 25.5533 12.9345 26.8582 12.9345H39.2858C39.2658 15.7966 39.2858 17.9366 39.2858 17.9366C39.2858 20.5191 41.6097 22.8766 44.2568 22.8766C44.2568 22.8766 45.5767 22.8766 47.9851 22.8766V40.2752ZM44.2568 20.391C42.9333 20.391 41.7713 17.9863 41.7713 16.6963C41.7713 16.6963 41.7713 15.3889 41.7713 12.973V12.9705L47.9851 20.391H44.2568Z" fill="#E1FF08"/>
</svg>
